<svg xmlns="http://www.w3.org/2000/svg" viewBox="0 0 1200 900" fill="none">
  <rect width="1200" height="900" rx="64" fill="transparent"/>
  <circle cx="212" cy="196" r="128" fill="#2563eb" fill-opacity=".14"/>
  <circle cx="958" cy="178" r="140" fill="#60a5fa" fill-opacity=".16"/>
  <circle cx="902" cy="682" r="190" fill="#4f8f61" fill-opacity=".12"/>
  <rect x="220" y="216" width="760" height="430" rx="44" fill="#f8fbff" fill-opacity=".18"/>
  <rect x="280" y="286" width="640" height="260" rx="28" fill="#0f172a" fill-opacity=".32"/>
  <path d="M326 350h400" stroke="#eff6ff" stroke-width="24" stroke-linecap="round" stroke-opacity=".92"/>
  <path d="M326 408h332" stroke="#eff6ff" stroke-width="18" stroke-linecap="round" stroke-opacity=".86"/>
  <path d="M326 462h284" stroke="#eff6ff" stroke-width="18" stroke-linecap="round" stroke-opacity=".8"/>
  <rect x="688" y="340" width="132" height="168" rx="24" fill="#f6f8f2" fill-opacity=".86"/>
  <rect x="714" y="370" width="80" height="18" rx="9" fill="#2563eb" fill-opacity=".84"/>
  <rect x="714" y="406" width="80" height="18" rx="9" fill="#4f8f61" fill-opacity=".84"/>
  <rect x="714" y="442" width="56" height="18" rx="9" fill="#b57d34" fill-opacity=".84"/>
  <circle cx="386" cy="588" r="46" fill="#f6f8f2" fill-opacity=".92"/>
  <path d="M386 634v104" stroke="#f6f8f2" stroke-width="28" stroke-linecap="round"/>
  <path d="M324 680h124" stroke="#f6f8f2" stroke-width="28" stroke-linecap="round"/>
  <circle cx="552" cy="588" r="40" fill="#f6f8f2" fill-opacity=".92"/>
  <path d="M552 628v92" stroke="#f6f8f2" stroke-width="26" stroke-linecap="round"/>
  <path d="M492 672h120" stroke="#f6f8f2" stroke-width="26" stroke-linecap="round"/>
  <circle cx="748" cy="588" r="42" fill="#f6f8f2" fill-opacity=".92"/>
  <path d="M748 630v98" stroke="#f6f8f2" stroke-width="26" stroke-linecap="round"/>
  <path d="M688 676h120" stroke="#f6f8f2" stroke-width="26" stroke-linecap="round"/>
  <path d="M434 744c56-64 134-96 234-96 94 0 172 28 235 84" stroke="#cfe9d1" stroke-width="18" stroke-linecap="round"/>
  <circle cx="601" cy="230" r="42" fill="#b57d34" fill-opacity=".82"/>
  <path d="M601 188v84" stroke="#fff" stroke-width="10" stroke-linecap="round"/>
  <path d="M559 230h84" stroke="#fff" stroke-width="10" stroke-linecap="round"/>
</svg>
