<svg xmlns="http://www.w3.org/2000/svg" viewBox="0 0 1200 900" fill="none">
  <rect width="1200" height="900" rx="64" fill="transparent"/>
  <circle cx="220" cy="220" r="132" fill="#0f766e" fill-opacity=".16"/>
  <circle cx="972" cy="210" r="158" fill="#22c55e" fill-opacity=".14"/>
  <circle cx="944" cy="662" r="186" fill="#2563eb" fill-opacity=".10"/>
  <rect x="260" y="240" width="680" height="410" rx="52" fill="#f8fbff" fill-opacity=".16"/>
  <circle cx="600" cy="412" r="152" fill="#f6f8f2" fill-opacity=".12"/>
  <path d="M600 320v184" stroke="#f6f8f2" stroke-width="34" stroke-linecap="round"/>
  <path d="M508 412h184" stroke="#f6f8f2" stroke-width="34" stroke-linecap="round"/>
  <path d="M358 546c64-83 140-123 228-123" stroke="#cfe9d1" stroke-width="18" stroke-linecap="round"/>
  <path d="M840 546c-64-83-140-123-228-123" stroke="#cfe9d1" stroke-width="18" stroke-linecap="round"/>
  <circle cx="380" cy="614" r="42" fill="#f6f8f2" fill-opacity=".92"/>
  <path d="M380 656v102" stroke="#f6f8f2" stroke-width="26" stroke-linecap="round"/>
  <path d="M326 700h108" stroke="#f6f8f2" stroke-width="26" stroke-linecap="round"/>
  <circle cx="820" cy="614" r="42" fill="#f6f8f2" fill-opacity=".92"/>
  <path d="M820 656v102" stroke="#f6f8f2" stroke-width="26" stroke-linecap="round"/>
  <path d="M766 700h108" stroke="#f6f8f2" stroke-width="26" stroke-linecap="round"/>
  <rect x="514" y="528" width="172" height="52" rx="26" fill="#0f766e" fill-opacity=".82"/>
  <path d="M532 554h136" stroke="#fff" stroke-width="18" stroke-linecap="round"/>
  <circle cx="600" cy="260" r="38" fill="#b57d34" fill-opacity=".8"/>
  <path d="M576 259h48" stroke="#fff" stroke-width="10" stroke-linecap="round"/>
  <path d="M600 235v48" stroke="#fff" stroke-width="10" stroke-linecap="round"/>
</svg>
